<?xml version="1.0" encoding="UTF-8"?><!DOCTYPE svg PUBLIC "-//W3C//DTD SVG 1.1//EN" "http://www.w3.org/Graphics/SVG/1.1/DTD/svg11.dtd"><svg xmlns="http://www.w3.org/2000/svg"><symbol id="home" viewBox="0 0 24 24"><path d="M10 20v-6h4v6h5v-8h3L12 3 2 12h3v8z"/></symbol><symbol id="trending-up" viewBox="0 0 24 24"><path d="M16 6l2.29 2.29-4.88 4.88-4-4L2 16.59 3.41 18l6-6 4 4 6.3-6.29L22 12V6z"/></symbol><symbol id="album" viewBox="0 0 24 24"><path d="M12 2C6.48 2 2 6.48 2 12s4.48 10 10 10 10-4.48 10-10S17.52 2 12 2zm0 14.5c-2.49 0-4.5-2.01-4.5-4.5S9.51 7.5 12 7.5s4.5 2.01 4.5 4.5-2.01 4.5-4.5 4.5zm0-5.5c-.55 0-1 .45-1 1s.45 1 1 1 1-.45 1-1-.45-1-1-1z"/></symbol><symbol id="library-music" viewBox="0 0 24 24"><path d="M20 2H8c-1.1 0-2 .9-2 2v12c0 1.1.9 2 2 2h12c1.1 0 2-.9 2-2V4c0-1.1-.9-2-2-2zm-2 5h-3v5.5a2.5 2.5 0 0 1-5 0 2.5 2.5 0 0 1 2.5-2.5c.57 0 1.08.19 1.5.51V5h4v2zM4 6H2v14c0 1.1.9 2 2 2h14v-2H4V6z"/></symbol><symbol id="mic" viewBox="0 0 24 24"><path d="M12 14c1.66 0 2.99-1.34 2.99-3L15 5c0-1.66-1.34-3-3-3S9 3.34 9 5v6c0 1.66 1.34 3 3 3zm5.3-3c0 3-2.54 5.1-5.3 5.1S6.7 14 6.7 11H5c0 3.41 2.72 6.23 6 6.72V21h2v-3.28c3.28-.48 6-3.3 6-6.72h-1.7z"/></symbol><symbol id="redo" viewBox="0 0 24 24"><path d="M18.4 10.6C16.55 8.99 14.15 8 11.5 8c-4.65 0-8.58 3.03-9.96 7.22L3.9 16a8.002 8.002 0 0 1 7.6-5.5c1.95 0 3.73.72 5.12 1.88L13 16h9V7l-3.6 3.6z"/></symbol><symbol id="undo" viewBox="0 0 24 24"><path d="M12.5 8c-2.65 0-5.05.99-6.9 2.6L2 7v9h9l-3.62-3.62c1.39-1.16 3.16-1.88 5.12-1.88 3.54 0 6.55 2.31 7.6 5.5l2.37-.78C21.08 11.03 17.15 8 12.5 8z"/></symbol><symbol id="drag-handle" viewBox="0 0 24 24"><path d="M20 9H4v2h16V9zM4 15h16v-2H4v2z"/></symbol><symbol id="format-align-center" viewBox="0 0 24 24"><path d="M7 15v2h10v-2H7zm-4 6h18v-2H3v2zm0-8h18v-2H3v2zm4-6v2h10V7H7zM3 3v2h18V3H3z"/></symbol><symbol id="format-align-left" viewBox="0 0 24 24"><path d="M15 15H3v2h12v-2zm0-8H3v2h12V7zM3 13h18v-2H3v2zm0 8h18v-2H3v2zM3 3v2h18V3H3z"/></symbol><symbol id="format-align-right" viewBox="0 0 24 24"><path d="M3 21h18v-2H3v2zm6-4h12v-2H9v2zm-6-4h18v-2H3v2zm6-4h12V7H9v2zM3 3v2h18V3H3z"/></symbol><symbol id="format-color-fill" viewBox="0 0 24 24"><path d="M16.56 8.94L7.62 0 6.21 1.41l2.38 2.38-5.15 5.15a1.49 1.49 0 0 0 0 2.12l5.5 5.5c.29.29.68.44 1.06.44s.77-.15 1.06-.44l5.5-5.5c.59-.58.59-1.53 0-2.12zM5.21 10L10 5.21 14.79 10H5.21zM19 11.5s-2 2.17-2 3.5c0 1.1.9 2 2 2s2-.9 2-2c0-1.33-2-3.5-2-3.5z"/><path fill-opacity=".36" d="M0 20h24v4H0z"/></symbol><symbol id="desktop-windows" viewBox="0 0 24 24"><path d="M21 2H3c-1.1 0-2 .9-2 2v12c0 1.1.9 2 2 2h7v2H8v2h8v-2h-2v-2h7c1.1 0 2-.9 2-2V4c0-1.1-.9-2-2-2zm0 14H3V4h18v12z"/></symbol><symbol id="keyboard-arrow-left" viewBox="0 0 24 24"><path d="M15.41 16.09l-4.58-4.59 4.58-4.59L14 5.5l-6 6 6 6z"/></symbol><symbol id="keyboard-arrow-right" viewBox="0 0 24 24"><path d="M8.59 16.34l4.58-4.59-4.58-4.59L10 5.75l6 6-6 6z"/></symbol><symbol id="laptop-chromebook" viewBox="0 0 24 24"><path d="M22 18V3H2v15H0v2h24v-2h-2zm-8 0h-4v-1h4v1zm6-3H4V5h16v10z"/></symbol><symbol id="phone-android" viewBox="0 0 24 24"><path d="M16 1H8C6.34 1 5 2.34 5 4v16c0 1.66 1.34 3 3 3h8c1.66 0 3-1.34 3-3V4c0-1.66-1.34-3-3-3zm-2 20h-4v-1h4v1zm3.25-3H6.75V4h10.5v14z"/></symbol><symbol id="tablet-android" viewBox="0 0 24 24"><path d="M18 0H6C4.34 0 3 1.34 3 3v18c0 1.66 1.34 3 3 3h12c1.66 0 3-1.34 3-3V3c0-1.66-1.34-3-3-3zm-4 22h-4v-1h4v1zm5.25-3H4.75V3h14.5v16z"/></symbol><symbol id="local-offer" viewBox="0 0 24 24"><path d="M21.41 11.58l-9-9C12.05 2.22 11.55 2 11 2H4c-1.1 0-2 .9-2 2v7c0 .55.22 1.05.59 1.42l9 9c.36.36.86.58 1.41.58.55 0 1.05-.22 1.41-.59l7-7c.37-.36.59-.86.59-1.41 0-.55-.23-1.06-.59-1.42zM5.5 7C4.67 7 4 6.33 4 5.5S4.67 4 5.5 4 7 4.67 7 5.5 6.33 7 5.5 7z"/></symbol><symbol id="cancel" viewBox="0 0 24 24"><path d="M12 2C6.47 2 2 6.47 2 12s4.47 10 10 10 10-4.47 10-10S17.53 2 12 2zm5 13.59L15.59 17 12 13.41 8.41 17 7 15.59 10.59 12 7 8.41 8.41 7 12 10.59 15.59 7 17 8.41 13.41 12 17 15.59z"/></symbol><symbol id="close" viewBox="0 0 24 24"><path d="M19 6.41L17.59 5 12 10.59 6.41 5 5 6.41 10.59 12 5 17.59 6.41 19 12 13.41 17.59 19 19 17.59 13.41 12z"/></symbol><symbol id="person" viewBox="0 0 24 24"><path d="M12 12c2.21 0 4-1.79 4-4s-1.79-4-4-4-4 1.79-4 4 1.79 4 4 4zm0 2c-2.67 0-8 1.34-8 4v2h16v-2c0-2.66-5.33-4-8-4z"/></symbol><symbol id="whatshot" viewBox="0 0 24 24"><path d="M13.5.67s.74 2.65.74 4.8c0 2.06-1.35 3.73-3.41 3.73-2.07 0-3.63-1.67-3.63-3.73l.03-.36C5.21 7.51 4 10.62 4 14c0 4.42 3.58 8 8 8s8-3.58 8-8C20 8.61 17.41 3.8 13.5.67zM11.71 19c-1.78 0-3.22-1.4-3.22-3.14 0-1.62 1.05-2.76 2.81-3.12 1.77-.36 3.6-1.21 4.62-2.58.39 1.29.59 2.65.59 4.04 0 2.65-2.15 4.8-4.8 4.8z"/></symbol><symbol id="audiotrack" viewBox="0 0 24 24"><path d="M12 3v9.28a4.39 4.39 0 0 0-1.5-.28C8.01 12 6 14.01 6 16.5S8.01 21 10.5 21c2.31 0 4.2-1.75 4.45-4H15V6h4V3h-7z"/></symbol><symbol id="gradient" viewBox="0 0 24 24"><path d="M11 9h2v2h-2zm-2 2h2v2H9zm4 0h2v2h-2zm2-2h2v2h-2zM7 9h2v2H7zm12-6H5c-1.1 0-2 .9-2 2v14c0 1.1.9 2 2 2h14c1.1 0 2-.9 2-2V5c0-1.1-.9-2-2-2zM9 18H7v-2h2v2zm4 0h-2v-2h2v2zm4 0h-2v-2h2v2zm2-7h-2v2h2v2h-2v-2h-2v2h-2v-2h-2v2H9v-2H7v2H5v-2h2v-2H5V5h14v6z"/></symbol><symbol id="image" viewBox="0 0 24 24"><path d="M21 19V5c0-1.1-.9-2-2-2H5c-1.1 0-2 .9-2 2v14c0 1.1.9 2 2 2h14c1.1 0 2-.9 2-2zM8.5 13.5l2.5 3.01L14.5 12l4.5 6H5l3.5-4.5z"/></symbol><symbol id="brush-custom" viewBox="0 0 32 32"><path d="M24.813 4.031c-.836 0-1.68.336-2.313.969L9.812 17.5l-.624.594c-.75.14-1.465.508-2.032 1.125-.832.91-.996 2.023-1.312 3.218-.317 1.196-.719 2.528-1.688 4l-1 1.563H5c3.914 0 6.496-1.871 7.813-3.188l.03-.03c.602-.618.938-1.395 1.063-2.188l.5-.469 12.688-12.5v-.031a3.254 3.254 0 0 0 0-4.594c-.633-.633-1.446-.969-2.282-.969zm0 1.969c.312 0 .609.14.875.406.535.535.535 1.246 0 1.782l-9.032 8.937-1.812-1.813 9.062-8.906c.266-.265.594-.406.907-.406zM13.405 16.719l1.813 1.812-1.5 1.469-1.813-1.813zM9.97 20.03c.504.016 1.05.211 1.469.594.777.71.796 1.953-.032 2.781-.867.867-2.406 1.985-4.656 2.407.48-1.051.816-2.032 1.031-2.844.332-1.254.578-2.114.844-2.407.348-.378.84-.546 1.344-.53z"/></symbol><symbol id="documents-custom" viewBox="0 0 32 32"><path d="M14 2v5l2 2V4h7v5h5v13h-8v2h10V7.578l-.223-.266-4.804-5.074-.25-.238zm11.2 2.906l2.05 2.172H25.2zM2 8v22h16V13.578l-.223-.265L13 8zm2 2h7v5h5v13H4zm9.2.906l2.05 2.172H13.2zM20 12v2h6v-2zm0 4v2h6v-2zM6 18v2h8v-2zm0 4v2h8v-2z"/></symbol><symbol id="google-custom" viewBox="0 0 32 32"><path d="M16.004 14.063v4.203h5.988c-.781 2.547-2.91 4.37-5.988 4.37A6.638 6.638 0 0 1 9.367 16a6.636 6.636 0 0 1 6.637-6.637c1.648 0 3.152.606 4.312 1.602l3.094-3.098A10.958 10.958 0 0 0 16.004 5C9.926 5 5 9.926 5 16s4.926 11 11.004 11c9.234 0 11.273-8.637 10.367-12.922z"/></symbol><symbol id="paint-palette-custom" viewBox="0 0 32 32"><path d="M15.594 2.969c-.531.015-1.078.074-1.625.156h-.031C8.613 3.996 4.3 8.191 3.217 13.5c-.323 1.512-.304 2.922-.093 4.313.008.003 0 .023 0 .03.328 2.348 3.375 3.376 5.094 1.657 1.23-1.23 3.05-1.23 4.281 0 1.23 1.23 1.23 3.05 0 4.281-1.719 1.719-.691 4.766 1.656 5.094.008 0 .028-.008.031 0 1.38.21 2.782.223 4.282-.094h.031c5.324-.992 9.508-5.406 10.375-10.718v-.032c1.133-7.64-4.453-14.312-11.719-15a12.21 12.21 0 0 0-1.562-.062zm.031 2A10.97 10.97 0 0 1 16.969 5a11.093 11.093 0 0 1 9.937 12.75c-.73 4.477-4.32 8.242-8.781 9.063h-.031a9.885 9.885 0 0 1-3.657.093c-.82-.101-1.199-1.02-.53-1.687a5.036 5.036 0 0 0 0-7.125 5.036 5.036 0 0 0-7.126 0c-.668.668-1.586.289-1.687-.532a9.885 9.885 0 0 1 .093-3.656c.918-4.488 4.586-8.082 9.063-8.812.469-.07.922-.11 1.375-.125zM14 7a1.999 1.999 0 1 0 0 4 1.999 1.999 0 1 0 0-4zm7 2a1.999 1.999 0 1 0 0 4 1.999 1.999 0 1 0 0-4zM9 11a1.999 1.999 0 1 0 0 4 1.999 1.999 0 1 0 0-4zm14 5a1.999 1.999 0 1 0 0 4 1.999 1.999 0 1 0 0-4zm-4 5a1.999 1.999 0 1 0 0 4 1.999 1.999 0 1 0 0-4z"/></symbol><symbol id="puzzle-custom" viewBox="0 0 32 32"><path d="M17 3c-2.21 0-4 1.79-4 4H7v5c-2.21 0-4 1.79-4 4s1.79 4 4 4v5h6c0 2.21 1.79 4 4 4s4-1.79 4-4h6v-7h-2c-1.191 0-2-.809-2-2 0-1.191.809-2 2-2h2V7h-6c0-2.21-1.79-4-4-4zm0 2c1.191 0 2 .809 2 2v2h6v3c-2.21 0-4 1.79-4 4s1.79 4 4 4v3h-6v2c0 1.191-.809 2-2 2-1.191 0-2-.809-2-2v-2H9v-5H7c-1.191 0-2-.809-2-2 0-1.191.809-2 2-2h2V9h6V7c0-1.191.809-2 2-2z"/></symbol><symbol id="settings-custom" viewBox="0 0 32 32"><path d="M13.188 3l-.157.813-.594 2.968a9.939 9.939 0 0 0-2.593 1.532l-2.906-1-.782-.25-.406.718-2 3.438-.406.719.594.53 2.25 1.97C6.104 14.948 6 15.46 6 16c0 .54.105 1.05.188 1.563l-2.25 1.968-.594.532.406.718 2 3.438.406.718.782-.25 2.906-1a9.939 9.939 0 0 0 2.594 1.532l.593 2.968.156.813h5.626l.156-.813.593-2.968a9.939 9.939 0 0 0 2.594-1.532l2.907 1 .78.25.407-.718 2-3.438.406-.718-.593-.532-2.25-1.968C25.895 17.05 26 16.538 26 16c0-.54-.105-1.05-.188-1.563l2.25-1.968.594-.531-.406-.72-2-3.437-.406-.718-.782.25-2.906 1a9.939 9.939 0 0 0-2.593-1.532l-.594-2.968L18.812 3zm1.624 2h2.376l.5 2.594.125.593.562.188a8.017 8.017 0 0 1 3.031 1.75l.438.406.562-.187 2.532-.875 1.187 2.031-2 1.781-.469.375.157.594c.128.57.187 1.152.187 1.75 0 .598-.059 1.18-.188 1.75l-.125.594.438.375 2 1.781-1.188 2.031-2.53-.875-.563-.187-.438.406a8.017 8.017 0 0 1-3.031 1.75l-.563.188-.125.593-.5 2.594h-2.375l-.5-2.594-.124-.593-.563-.188a8.017 8.017 0 0 1-3.031-1.75l-.438-.406-.562.187-2.531.875L5.875 20.5l2-1.781.469-.375-.156-.594A7.901 7.901 0 0 1 8 16c0-.598.059-1.18.188-1.75l.156-.594-.469-.375-2-1.781 1.188-2.031 2.53.875.563.187.438-.406a8.017 8.017 0 0 1 3.031-1.75l.563-.188.124-.593zM16 11c-2.75 0-5 2.25-5 5s2.25 5 5 5 5-2.25 5-5-2.25-5-5-5zm0 2c1.668 0 3 1.332 3 3s-1.332 3-3 3-3-1.332-3-3 1.332-3 3-3z"/></symbol><symbol id="source-code-custom" viewBox="0 0 32 32"><path d="M18 5l-6 22h2l6-22zM7.937 6.406l-6.75 9L.75 16l.438.594 6.75 9 1.625-1.188L3.25 16l6.313-8.406zm16.125 0l-1.625 1.188L28.75 16l-6.313 8.406 1.625 1.188 6.75-9L31.25 16l-.438-.594z"/></symbol></svg>