<?xml version="1.0" encoding="UTF-8"?><!DOCTYPE svg PUBLIC "-//W3C//DTD SVG 1.1//EN" "http://www.w3.org/Graphics/SVG/1.1/DTD/svg11.dtd"><svg xmlns="http://www.w3.org/2000/svg"><symbol id="live-help" viewBox="0 0 24 24"><path d="M19 2H5a2 2 0 0 0-2 2v14a2 2 0 0 0 2 2h4l3 3 3-3h4c1.1 0 2-.9 2-2V4c0-1.1-.9-2-2-2zm-6 16h-2v-2h2v2zm2.07-7.75l-.9.92C13.45 11.9 13 12.5 13 14h-2v-.5c0-1.1.45-2.1 1.17-2.83l1.24-1.26c.37-.36.59-.86.59-1.41 0-1.1-.9-2-2-2s-2 .9-2 2H8c0-2.21 1.79-4 4-4s4 1.79 4 4c0 .88-.36 1.68-.93 2.25z"/></symbol><symbol id="content-copy" viewBox="0 0 24 24"><path d="M16 1H4c-1.1 0-2 .9-2 2v14h2V3h12V1zm3 4H8c-1.1 0-2 .9-2 2v14c0 1.1.9 2 2 2h11c1.1 0 2-.9 2-2V7c0-1.1-.9-2-2-2zm0 16H8V7h11v14z"/></symbol><symbol id="content-cut" viewBox="0 0 24 24"><path d="M9.64 7.64c.23-.5.36-1.05.36-1.64 0-2.21-1.79-4-4-4S2 3.79 2 6s1.79 4 4 4c.59 0 1.14-.13 1.64-.36L10 12l-2.36 2.36C7.14 14.13 6.59 14 6 14c-2.21 0-4 1.79-4 4s1.79 4 4 4 4-1.79 4-4c0-.59-.13-1.14-.36-1.64L12 14l7 7h3v-1L9.64 7.64zM6 8c-1.1 0-2-.89-2-2s.9-2 2-2 2 .89 2 2-.9 2-2 2zm0 12c-1.1 0-2-.89-2-2s.9-2 2-2 2 .89 2 2-.9 2-2 2zm6-7.5c-.28 0-.5-.22-.5-.5s.22-.5.5-.5.5.22.5.5-.22.5-.5.5zM19 3l-6 6 2 2 7-7V3z"/></symbol><symbol id="content-paste" viewBox="0 0 24 24"><path d="M19 2h-4.18C14.4.84 13.3 0 12 0c-1.3 0-2.4.84-2.82 2H5c-1.1 0-2 .9-2 2v16c0 1.1.9 2 2 2h14c1.1 0 2-.9 2-2V4c0-1.1-.9-2-2-2zm-7 0c.55 0 1 .45 1 1s-.45 1-1 1-1-.45-1-1 .45-1 1-1zm7 18H5V4h2v3h10V4h2v16z"/></symbol><symbol id="link" viewBox="0 0 24 24"><path d="M3.9 12c0-1.71 1.39-3.1 3.1-3.1h4V7H7c-2.76 0-5 2.24-5 5s2.24 5 5 5h4v-1.9H7c-1.71 0-3.1-1.39-3.1-3.1zM8 13h8v-2H8v2zm9-6h-4v1.9h4c1.71 0 3.1 1.39 3.1 3.1s-1.39 3.1-3.1 3.1h-4V17h4c2.76 0 5-2.24 5-5s-2.24-5-5-5z"/></symbol><symbol id="redo" viewBox="0 0 24 24"><path d="M18.4 10.6C16.55 8.99 14.15 8 11.5 8c-4.65 0-8.58 3.03-9.96 7.22L3.9 16a8.002 8.002 0 0 1 7.6-5.5c1.95 0 3.73.72 5.12 1.88L13 16h9V7l-3.6 3.6z"/></symbol><symbol id="remove" viewBox="0 0 24 24"><path d="M19 13H5v-2h14v2z"/></symbol><symbol id="undo" viewBox="0 0 24 24"><path d="M12.5 8c-2.65 0-5.05.99-6.9 2.6L2 7v9h9l-3.62-3.62c1.39-1.16 3.16-1.88 5.12-1.88 3.54 0 6.55 2.31 7.6 5.5l2.37-.78C21.08 11.03 17.15 8 12.5 8z"/></symbol><symbol id="call-to-action" viewBox="0 0 24 24"><path d="M21 3H3c-1.1 0-2 .9-2 2v14c0 1.1.9 2 2 2h18c1.1 0 2-.9 2-2V5c0-1.1-.9-2-2-2zm0 16H3v-3h18v3z"/></symbol><symbol id="video-library" viewBox="0 0 24 24"><path d="M4 6H2v14c0 1.1.9 2 2 2h14v-2H4V6zm16-4H8c-1.1 0-2 .9-2 2v12c0 1.1.9 2 2 2h12c1.1 0 2-.9 2-2V4c0-1.1-.9-2-2-2zm-8 12.5v-9l6 4.5-6 4.5z"/></symbol><symbol id="account-box" viewBox="0 0 24 24"><path d="M3 5v14a2 2 0 0 0 2 2h14c1.1 0 2-.9 2-2V5c0-1.1-.9-2-2-2H5a2 2 0 0 0-2 2zm12 4c0 1.66-1.34 3-3 3s-3-1.34-3-3 1.34-3 3-3 3 1.34 3 3zm-9 8c0-2 4-3.1 6-3.1s6 1.1 6 3.1v1H6v-1z"/></symbol><symbol id="build" viewBox="0 0 24 24"><path d="M22.7 19l-9.1-9.1c.9-2.3.4-5-1.5-6.9-2-2-5-2.4-7.4-1.3L9 6 6 9 1.6 4.7C.4 7.1.9 10.1 2.9 12.1c1.9 1.9 4.6 2.4 6.9 1.5l9.1 9.1c.4.4 1 .4 1.4 0l2.3-2.3c.5-.4.5-1.1.1-1.4z"/></symbol><symbol id="delete" viewBox="0 0 24 24"><path d="M6 19c0 1.1.9 2 2 2h8c1.1 0 2-.9 2-2V7H6v12zM19 4h-3.5l-1-1h-5l-1 1H5v2h14V4z"/></symbol><symbol id="flip-to-back" viewBox="0 0 24 24"><path d="M9 7H7v2h2V7zm0 4H7v2h2v-2zm0-8a2 2 0 0 0-2 2h2V3zm4 12h-2v2h2v-2zm6-12v2h2c0-1.1-.9-2-2-2zm-6 0h-2v2h2V3zM9 17v-2H7a2 2 0 0 0 2 2zm10-4h2v-2h-2v2zm0-4h2V7h-2v2zm0 8c1.1 0 2-.9 2-2h-2v2zM5 7H3v12a2 2 0 0 0 2 2h12v-2H5V7zm10-2h2V3h-2v2zm0 12h2v-2h-2v2z"/></symbol><symbol id="info" viewBox="0 0 24 24"><path d="M12 2C6.48 2 2 6.48 2 12s4.48 10 10 10 10-4.48 10-10S17.52 2 12 2zm1 15h-2v-6h2v6zm0-8h-2V7h2v2z"/></symbol><symbol id="label-outline" viewBox="0 0 24 24"><path d="M17.63 5.84C17.27 5.33 16.67 5 16 5L5 5.01C3.9 5.01 3 5.9 3 7v10c0 1.1.9 1.99 2 1.99L16 19c.67 0 1.27-.33 1.63-.84L22 12l-4.37-6.16zM16 17H5V7h11l3.55 5L16 17z"/></symbol><symbol id="note-add" viewBox="0 0 24 24"><path d="M14 2H6c-1.1 0-1.99.9-1.99 2L4 20c0 1.1.89 2 1.99 2H18c1.1 0 2-.9 2-2V8l-6-6zm2 14h-3v3h-2v-3H8v-2h3v-3h2v3h3v2zm-3-7V3.5L18.5 9H13z"/></symbol><symbol id="perm-media" viewBox="0 0 24 24"><path d="M2 6H0v5h.01L0 20c0 1.1.9 2 2 2h18v-2H2V6zm20-2h-8l-2-2H6c-1.1 0-1.99.9-1.99 2L4 16c0 1.1.9 2 2 2h16c1.1 0 2-.9 2-2V6c0-1.1-.9-2-2-2zM7 15l4.5-6 3.5 4.51 2.5-3.01L21 15H7z"/></symbol><symbol id="view-column" viewBox="0 0 24 24"><path d="M10 18h5V5h-5v13zm-6 0h5V5H4v13zM16 5v13h5V5h-5z"/></symbol><symbol id="view-headline" viewBox="0 0 24 24"><path d="M4 15h16v-2H4v2zm0 4h16v-2H4v2zm0-8h16V9H4v2zm0-6v2h16V5H4z"/></symbol><symbol id="view-list" viewBox="0 0 24 24"><path d="M4 14h4v-4H4v4zm0 5h4v-4H4v4zM4 9h4V5H4v4zm5 5h12v-4H9v4zm0 5h12v-4H9v4zM9 5v4h12V5H9z"/></symbol><symbol id="view-module" viewBox="0 0 24 24"><path d="M4 11h5V5H4v6zm0 7h5v-6H4v6zm6 0h5v-6h-5v6zm6 0h5v-6h-5v6zm-6-7h5V5h-5v6zm6-6v6h5V5h-5z"/></symbol><symbol id="view-stream" viewBox="0 0 24 24"><path d="M4 18h17v-6H4v6zM4 5v6h17V5H4z"/></symbol><symbol id="border-all" viewBox="0 0 24 24"><path d="M3 3v18h18V3H3zm8 16H5v-6h6v6zm0-8H5V5h6v6zm8 8h-6v-6h6v6zm0-8h-6V5h6v6z"/></symbol><symbol id="drag-handle" viewBox="0 0 24 24"><path d="M20 9H4v2h16V9zM4 15h16v-2H4v2z"/></symbol><symbol id="format-align-center" viewBox="0 0 24 24"><path d="M7 15v2h10v-2H7zm-4 6h18v-2H3v2zm0-8h18v-2H3v2zm4-6v2h10V7H7zM3 3v2h18V3H3z"/></symbol><symbol id="format-align-left" viewBox="0 0 24 24"><path d="M15 15H3v2h12v-2zm0-8H3v2h12V7zM3 13h18v-2H3v2zm0 8h18v-2H3v2zM3 3v2h18V3H3z"/></symbol><symbol id="format-align-right" viewBox="0 0 24 24"><path d="M3 21h18v-2H3v2zm6-4h12v-2H9v2zm-6-4h18v-2H3v2zm6-4h12V7H9v2zM3 3v2h18V3H3z"/></symbol><symbol id="format-bold" viewBox="0 0 24 24"><path d="M15.6 10.79c.97-.67 1.65-1.77 1.65-2.79 0-2.26-1.75-4-4-4H7v14h7.04c2.09 0 3.71-1.7 3.71-3.79 0-1.52-.86-2.82-2.15-3.42zM10 6.5h3c.83 0 1.5.67 1.5 1.5s-.67 1.5-1.5 1.5h-3v-3zm3.5 9H10v-3h3.5c.83 0 1.5.67 1.5 1.5s-.67 1.5-1.5 1.5z"/></symbol><symbol id="format-color-fill" viewBox="0 0 24 24"><path d="M16.56 8.94L7.62 0 6.21 1.41l2.38 2.38-5.15 5.15a1.49 1.49 0 0 0 0 2.12l5.5 5.5c.29.29.68.44 1.06.44s.77-.15 1.06-.44l5.5-5.5c.59-.58.59-1.53 0-2.12zM5.21 10L10 5.21 14.79 10H5.21zM19 11.5s-2 2.17-2 3.5c0 1.1.9 2 2 2s2-.9 2-2c0-1.33-2-3.5-2-3.5z"/><path fill-opacity=".36" d="M0 20h24v4H0z"/></symbol><symbol id="format-italic" viewBox="0 0 24 24"><path d="M10 4v3h2.21l-3.42 8H6v3h8v-3h-2.21l3.42-8H18V4z"/></symbol><symbol id="format-list-bulleted" viewBox="0 0 24 24"><path d="M4 10.5c-.83 0-1.5.67-1.5 1.5s.67 1.5 1.5 1.5 1.5-.67 1.5-1.5-.67-1.5-1.5-1.5zm0-6c-.83 0-1.5.67-1.5 1.5S3.17 7.5 4 7.5 5.5 6.83 5.5 6 4.83 4.5 4 4.5zm0 12c-.83 0-1.5.68-1.5 1.5s.68 1.5 1.5 1.5 1.5-.68 1.5-1.5-.67-1.5-1.5-1.5zM7 19h14v-2H7v2zm0-6h14v-2H7v2zm0-8v2h14V5H7z"/></symbol><symbol id="format-quote" viewBox="0 0 24 24"><path d="M6 17h3l2-4V7H5v6h3zm8 0h3l2-4V7h-6v6h3z"/></symbol><symbol id="format-size" viewBox="0 0 24 24"><path d="M9 4v3h5v12h3V7h5V4H9zm-6 8h3v7h3v-7h3V9H3v3z"/></symbol><symbol id="format-strikethrough" viewBox="0 0 24 24"><path d="M10 19h4v-3h-4v3zM5 4v3h5v3h4V7h5V4H5zM3 14h18v-2H3v2z"/></symbol><symbol id="format-underlined" viewBox="0 0 24 24"><path d="M12 17c3.31 0 6-2.69 6-6V3h-2.5v8c0 1.93-1.57 3.5-3.5 3.5S8.5 12.93 8.5 11V3H6v8c0 3.31 2.69 6 6 6zm-7 2v2h14v-2H5z"/></symbol><symbol id="insert-emoticon" viewBox="0 0 24 24"><path d="M11.99 2C6.47 2 2 6.48 2 12s4.47 10 9.99 10C17.52 22 22 17.52 22 12S17.52 2 11.99 2zM12 20c-4.42 0-8-3.58-8-8s3.58-8 8-8 8 3.58 8 8-3.58 8-8 8zm3.5-9c.83 0 1.5-.67 1.5-1.5S16.33 8 15.5 8 14 8.67 14 9.5s.67 1.5 1.5 1.5zm-7 0c.83 0 1.5-.67 1.5-1.5S9.33 8 8.5 8 7 8.67 7 9.5 7.67 11 8.5 11zm3.5 6.5c2.33 0 4.31-1.46 5.11-3.5H6.89c.8 2.04 2.78 3.5 5.11 3.5z"/></symbol><symbol id="monetization-on" viewBox="0 0 24 24"><path d="M12 2C6.48 2 2 6.48 2 12s4.48 10 10 10 10-4.48 10-10S17.52 2 12 2zm1.41 16.09V20h-2.67v-1.93c-1.71-.36-3.16-1.46-3.27-3.4h1.96c.1 1.05.82 1.87 2.65 1.87 1.96 0 2.4-.98 2.4-1.59 0-.83-.44-1.61-2.67-2.14-2.48-.6-4.18-1.62-4.18-3.67 0-1.72 1.39-2.84 3.11-3.21V4h2.67v1.95c1.86.45 2.79 1.86 2.85 3.39H14.3c-.05-1.11-.64-1.87-2.22-1.87-1.5 0-2.4.68-2.4 1.64 0 .84.65 1.39 2.67 1.91s4.18 1.39 4.18 3.91c-.01 1.83-1.38 2.83-3.12 3.16z"/></symbol><symbol id="short-text" viewBox="0 0 24 24"><path d="M4 9h16v2H4zm0 4h10v2H4z"/></symbol><symbol id="show-chart" viewBox="0 0 24 24"><path d="M3.5 18.49l6-6.01 4 4L22 6.92l-1.41-1.41-7.09 7.97-4-4L2 16.99z"/></symbol><symbol id="desktop-windows" viewBox="0 0 24 24"><path d="M21 2H3c-1.1 0-2 .9-2 2v12c0 1.1.9 2 2 2h7v2H8v2h8v-2h-2v-2h7c1.1 0 2-.9 2-2V4c0-1.1-.9-2-2-2zm0 14H3V4h18v12z"/></symbol><symbol id="keyboard-arrow-down" viewBox="0 0 24 24"><path d="M7.41 7.84L12 12.42l4.59-4.58L18 9.25l-6 6-6-6z"/></symbol><symbol id="keyboard-arrow-left" viewBox="0 0 24 24"><path d="M15.41 16.09l-4.58-4.59 4.58-4.59L14 5.5l-6 6 6 6z"/></symbol><symbol id="keyboard-arrow-right" viewBox="0 0 24 24"><path d="M8.59 16.34l4.58-4.59-4.58-4.59L10 5.75l6 6-6 6z"/></symbol><symbol id="keyboard-arrow-up" viewBox="0 0 24 24"><path d="M7.41 15.41L12 10.83l4.59 4.58L18 14l-6-6-6 6z"/></symbol><symbol id="laptop-chromebook" viewBox="0 0 24 24"><path d="M22 18V3H2v15H0v2h24v-2h-2zm-8 0h-4v-1h4v1zm6-3H4V5h16v10z"/></symbol><symbol id="phone-android" viewBox="0 0 24 24"><path d="M16 1H8C6.34 1 5 2.34 5 4v16c0 1.66 1.34 3 3 3h8c1.66 0 3-1.34 3-3V4c0-1.66-1.34-3-3-3zm-2 20h-4v-1h4v1zm3.25-3H6.75V4h10.5v14z"/></symbol><symbol id="power-input" viewBox="0 0 24 24"><path d="M2 9v2h19V9H2zm0 6h5v-2H2v2zm7 0h5v-2H9v2zm7 0h5v-2h-5v2z"/></symbol><symbol id="tablet-android" viewBox="0 0 24 24"><path d="M18 0H6C4.34 0 3 1.34 3 3v18c0 1.66 1.34 3 3 3h12c1.66 0 3-1.34 3-3V3c0-1.66-1.34-3-3-3zm-4 22h-4v-1h4v1zm5.25-3H4.75V3h14.5v16z"/></symbol><symbol id="arrow-downward" viewBox="0 0 24 24"><path d="M20 12l-1.41-1.41L13 16.17V4h-2v12.17l-5.58-5.59L4 12l8 8 8-8z"/></symbol><symbol id="arrow-drop-down" viewBox="0 0 24 24"><path d="M7 10l5 5 5-5z"/></symbol><symbol id="arrow-upward" viewBox="0 0 24 24"><path d="M4 12l1.41 1.41L11 7.83V20h2V7.83l5.58 5.59L20 12l-8-8-8 8z"/></symbol><symbol id="cancel" viewBox="0 0 24 24"><path d="M12 2C6.47 2 2 6.47 2 12s4.47 10 10 10 10-4.47 10-10S17.53 2 12 2zm5 13.59L15.59 17 12 13.41 8.41 17 7 15.59 10.59 12 7 8.41 8.41 7 12 10.59 15.59 7 17 8.41 13.41 12 17 15.59z"/></symbol><symbol id="close" viewBox="0 0 24 24"><path d="M19 6.41L17.59 5 12 10.59 6.41 5 5 6.41 10.59 12 5 17.59 6.41 19 12 13.41 17.59 19 19 17.59 13.41 12z"/></symbol><symbol id="menu" viewBox="0 0 24 24"><path d="M3 18h18v-2H3v2zm0-5h18v-2H3v2zm0-7v2h18V6H3z"/></symbol><symbol id="brush" viewBox="0 0 24 24"><path d="M7 14c-1.66 0-3 1.34-3 3 0 1.31-1.16 2-2 2 .92 1.22 2.49 2 4 2 2.21 0 4-1.79 4-4 0-1.66-1.34-3-3-3zm13.71-9.37l-1.34-1.34a.996.996 0 0 0-1.41 0L9 12.25 11.75 15l8.96-8.96a.996.996 0 0 0 0-1.41z"/></symbol><symbol id="crop-landscape" viewBox="0 0 24 24"><path d="M19 5H5c-1.1 0-2 .9-2 2v10c0 1.1.9 2 2 2h14c1.1 0 2-.9 2-2V7c0-1.1-.9-2-2-2zm0 12H5V7h14v10z"/></symbol><symbol id="crop-portrait" viewBox="0 0 24 24"><path d="M17 3H7c-1.1 0-2 .9-2 2v14c0 1.1.9 2 2 2h10c1.1 0 2-.9 2-2V5c0-1.1-.9-2-2-2zm0 16H7V5h10v14z"/></symbol><symbol id="crop-square" viewBox="0 0 24 24"><path d="M18 4H6c-1.1 0-2 .9-2 2v12c0 1.1.9 2 2 2h12c1.1 0 2-.9 2-2V6c0-1.1-.9-2-2-2zm0 14H6V6h12v12z"/></symbol><symbol id="gradient" viewBox="0 0 24 24"><path d="M11 9h2v2h-2zm-2 2h2v2H9zm4 0h2v2h-2zm2-2h2v2h-2zM7 9h2v2H7zm12-6H5c-1.1 0-2 .9-2 2v14c0 1.1.9 2 2 2h14c1.1 0 2-.9 2-2V5c0-1.1-.9-2-2-2zM9 18H7v-2h2v2zm4 0h-2v-2h2v2zm4 0h-2v-2h2v2zm2-7h-2v2h2v2h-2v-2h-2v2h-2v-2h-2v2H9v-2H7v2H5v-2h2v-2H5V5h14v6z"/></symbol><symbol id="grid-on" viewBox="0 0 24 24"><path d="M20 2H4c-1.1 0-2 .9-2 2v16c0 1.1.9 2 2 2h16c1.1 0 2-.9 2-2V4c0-1.1-.9-2-2-2zM8 20H4v-4h4v4zm0-6H4v-4h4v4zm0-6H4V4h4v4zm6 12h-4v-4h4v4zm0-6h-4v-4h4v4zm0-6h-4V4h4v4zm6 12h-4v-4h4v4zm0-6h-4v-4h4v4zm0-6h-4V4h4v4z"/></symbol><symbol id="image" viewBox="0 0 24 24"><path d="M21 19V5c0-1.1-.9-2-2-2H5c-1.1 0-2 .9-2 2v14c0 1.1.9 2 2 2h14c1.1 0 2-.9 2-2zM8.5 13.5l2.5 3.01L14.5 12l4.5 6H5l3.5-4.5z"/></symbol><symbol id="photo-size-select-large" viewBox="0 0 24 24"><path d="M21 15h2v2h-2v-2zm0-4h2v2h-2v-2zm2 8h-2v2c1 0 2-1 2-2zM13 3h2v2h-2V3zm8 4h2v2h-2V7zm0-4v2h2c0-1-1-2-2-2zM1 7h2v2H1V7zm16-4h2v2h-2V3zm0 16h2v2h-2v-2zM3 3C2 3 1 4 1 5h2V3zm6 0h2v2H9V3zM5 3h2v2H5V3zm-4 8v8c0 1.1.9 2 2 2h12V11H1zm2 8l2.5-3.21 1.79 2.15 2.5-3.22L13 19H3z"/></symbol><symbol id="check-box" viewBox="0 0 24 24"><path d="M19 3H5a2 2 0 0 0-2 2v14a2 2 0 0 0 2 2h14a2 2 0 0 0 2-2V5a2 2 0 0 0-2-2zm-9 14l-5-5 1.41-1.41L10 14.17l7.59-7.59L19 8l-9 9z"/></symbol><symbol id="brush-custom" viewBox="0 0 32 32"><path d="M24.813 4.031c-.836 0-1.68.336-2.313.969L9.812 17.5l-.624.594c-.75.14-1.465.508-2.032 1.125-.832.91-.996 2.023-1.312 3.218-.317 1.196-.719 2.528-1.688 4l-1 1.563H5c3.914 0 6.496-1.871 7.813-3.188l.03-.03c.602-.618.938-1.395 1.063-2.188l.5-.469 12.688-12.5v-.031a3.254 3.254 0 0 0 0-4.594c-.633-.633-1.446-.969-2.282-.969zm0 1.969c.312 0 .609.14.875.406.535.535.535 1.246 0 1.782l-9.032 8.937-1.812-1.813 9.062-8.906c.266-.265.594-.406.907-.406zM13.405 16.719l1.813 1.812-1.5 1.469-1.813-1.813zM9.97 20.03c.504.016 1.05.211 1.469.594.777.71.796 1.953-.032 2.781-.867.867-2.406 1.985-4.656 2.407.48-1.051.816-2.032 1.031-2.844.332-1.254.578-2.114.844-2.407.348-.378.84-.546 1.344-.53z"/></symbol><symbol id="button-custom" viewBox="0 0 50 50"><path d="M4 12c-2.2 0-4 1.8-4 4v18c0 2.2 1.8 4 4 4h42c2.2 0 4-1.8 4-4V16c0-2.2-1.8-4-4-4zm0 2h42c1.117 0 2 .883 2 2v18c0 1.117-.883 2-2 2H4c-1.117 0-2-.883-2-2V16c0-1.117.883-2 2-2zm29.527 8.309c-1.691 0-2.78 1.136-2.78 2.968 0 1.836 1.077 2.973 2.78 2.973 1.692 0 2.77-1.137 2.77-2.973 0-1.832-1.078-2.968-2.77-2.968zm-26.613.156v5.633h2.703c1.207 0 1.973-.637 1.973-1.625 0-.72-.574-1.293-1.309-1.332v-.075a1.212 1.212 0 0 0 1.047-1.199c0-.875-.66-1.402-1.785-1.402zm6.102 0v3.687c0 1.266.964 2.098 2.43 2.098 1.464 0 2.425-.832 2.425-2.098v-3.687h-1.433V26c0 .656-.356 1.047-.993 1.047-.636 0-.996-.39-.996-1.047v-3.535zm6.28 0v1.148h1.626v4.485h1.426v-4.485h1.632v-1.148zm5.794 0v1.148h1.625v4.485h1.43v-4.485h1.628v-1.148zm12.672 0v5.633h1.36v-3.203h.073l2.356 3.203h1.136v-5.633h-1.359v3.172h-.074l-2.348-3.172zM8.348 23.473h.812c.488 0 .774.242.774.644 0 .399-.305.645-.829.645h-.757zm25.175.023c.79 0 1.317.695 1.317 1.781 0 1.09-.524 1.785-1.317 1.785-.8 0-1.32-.695-1.32-1.785 0-1.086.527-1.78 1.32-1.78zM8.348 25.63h.855c.598 0 .93.258.93.719 0 .476-.324.742-.918.742h-.867z"/></symbol><symbol id="documents-custom" viewBox="0 0 32 32"><path d="M14 2v5l2 2V4h7v5h5v13h-8v2h10V7.578l-.223-.266-4.804-5.074-.25-.238zm11.2 2.906l2.05 2.172H25.2zM2 8v22h16V13.578l-.223-.265L13 8zm2 2h7v5h5v13H4zm9.2.906l2.05 2.172H13.2zM20 12v2h6v-2zm0 4v2h6v-2zM6 18v2h8v-2zm0 4v2h8v-2z"/></symbol><symbol id="form-custom" viewBox="0 0 24 24"><path d="M20 2H4c-1.105 0-2 .895-2 2v16c0 1.105.895 2 2 2h16c1.105 0 2-.895 2-2V4c0-1.105-.895-2-2-2zM8 10H4V8h4zm11 0h-8V8h8zm1 1H10V7h10zM8 16H4v-2h4zm11 0h-8v-2h8zm1 1H10v-4h10z"/></symbol><symbol id="google-custom" viewBox="0 0 32 32"><path d="M16.004 14.063v4.203h5.988c-.781 2.547-2.91 4.37-5.988 4.37A6.638 6.638 0 0 1 9.367 16a6.636 6.636 0 0 1 6.637-6.637c1.648 0 3.152.606 4.312 1.602l3.094-3.098A10.958 10.958 0 0 0 16.004 5C9.926 5 5 9.926 5 16s4.926 11 11.004 11c9.234 0 11.273-8.637 10.367-12.922z"/></symbol><symbol id="header-custom" viewBox="0 0 24 24"><path d="M5 2v20h3v-9h8v9h3V2h-3v8H8V2z"/></symbol><symbol id="paint-palette-custom" viewBox="0 0 32 32"><path d="M15.594 2.969c-.531.015-1.078.074-1.625.156h-.031C8.613 3.996 4.3 8.191 3.217 13.5c-.323 1.512-.304 2.922-.093 4.313.008.003 0 .023 0 .03.328 2.348 3.375 3.376 5.094 1.657 1.23-1.23 3.05-1.23 4.281 0 1.23 1.23 1.23 3.05 0 4.281-1.719 1.719-.691 4.766 1.656 5.094.008 0 .028-.008.031 0 1.38.21 2.782.223 4.282-.094h.031c5.324-.992 9.508-5.406 10.375-10.718v-.032c1.133-7.64-4.453-14.312-11.719-15a12.21 12.21 0 0 0-1.562-.062zm.031 2A10.97 10.97 0 0 1 16.969 5a11.093 11.093 0 0 1 9.937 12.75c-.73 4.477-4.32 8.242-8.781 9.063h-.031a9.885 9.885 0 0 1-3.657.093c-.82-.101-1.199-1.02-.53-1.687a5.036 5.036 0 0 0 0-7.125 5.036 5.036 0 0 0-7.126 0c-.668.668-1.586.289-1.687-.532a9.885 9.885 0 0 1 .093-3.656c.918-4.488 4.586-8.082 9.063-8.812.469-.07.922-.11 1.375-.125zM14 7a1.999 1.999 0 1 0 0 4 1.999 1.999 0 1 0 0-4zm7 2a1.999 1.999 0 1 0 0 4 1.999 1.999 0 1 0 0-4zM9 11a1.999 1.999 0 1 0 0 4 1.999 1.999 0 1 0 0-4zm14 5a1.999 1.999 0 1 0 0 4 1.999 1.999 0 1 0 0-4zm-4 5a1.999 1.999 0 1 0 0 4 1.999 1.999 0 1 0 0-4z"/></symbol><symbol id="puzzle-custom" viewBox="0 0 32 32"><path d="M17 3c-2.21 0-4 1.79-4 4H7v5c-2.21 0-4 1.79-4 4s1.79 4 4 4v5h6c0 2.21 1.79 4 4 4s4-1.79 4-4h6v-7h-2c-1.191 0-2-.809-2-2 0-1.191.809-2 2-2h2V7h-6c0-2.21-1.79-4-4-4zm0 2c1.191 0 2 .809 2 2v2h6v3c-2.21 0-4 1.79-4 4s1.79 4 4 4v3h-6v2c0 1.191-.809 2-2 2-1.191 0-2-.809-2-2v-2H9v-5H7c-1.191 0-2-.809-2-2 0-1.191.809-2 2-2h2V9h6V7c0-1.191.809-2 2-2z"/></symbol><symbol id="settings-custom" viewBox="0 0 32 32"><path d="M13.188 3l-.157.813-.594 2.968a9.939 9.939 0 0 0-2.593 1.532l-2.906-1-.782-.25-.406.718-2 3.438-.406.719.594.53 2.25 1.97C6.104 14.948 6 15.46 6 16c0 .54.105 1.05.188 1.563l-2.25 1.968-.594.532.406.718 2 3.438.406.718.782-.25 2.906-1a9.939 9.939 0 0 0 2.594 1.532l.593 2.968.156.813h5.626l.156-.813.593-2.968a9.939 9.939 0 0 0 2.594-1.532l2.907 1 .78.25.407-.718 2-3.438.406-.718-.593-.532-2.25-1.968C25.895 17.05 26 16.538 26 16c0-.54-.105-1.05-.188-1.563l2.25-1.968.594-.531-.406-.72-2-3.437-.406-.718-.782.25-2.906 1a9.939 9.939 0 0 0-2.593-1.532l-.594-2.968L18.812 3zm1.624 2h2.376l.5 2.594.125.593.562.188a8.017 8.017 0 0 1 3.031 1.75l.438.406.562-.187 2.532-.875 1.187 2.031-2 1.781-.469.375.157.594c.128.57.187 1.152.187 1.75 0 .598-.059 1.18-.188 1.75l-.125.594.438.375 2 1.781-1.188 2.031-2.53-.875-.563-.187-.438.406a8.017 8.017 0 0 1-3.031 1.75l-.563.188-.125.593-.5 2.594h-2.375l-.5-2.594-.124-.593-.563-.188a8.017 8.017 0 0 1-3.031-1.75l-.438-.406-.562.187-2.531.875L5.875 20.5l2-1.781.469-.375-.156-.594A7.901 7.901 0 0 1 8 16c0-.598.059-1.18.188-1.75l.156-.594-.469-.375-2-1.781 1.188-2.031 2.53.875.563.187.438-.406a8.017 8.017 0 0 1 3.031-1.75l.563-.188.124-.593zM16 11c-2.75 0-5 2.25-5 5s2.25 5 5 5 5-2.25 5-5-2.25-5-5-5zm0 2c1.668 0 3 1.332 3 3s-1.332 3-3 3-3-1.332-3-3 1.332-3 3-3z"/></symbol><symbol id="source-code-custom" viewBox="0 0 32 32"><path d="M18 5l-6 22h2l6-22zM7.937 6.406l-6.75 9L.75 16l.438.594 6.75 9 1.625-1.188L3.25 16l6.313-8.406zm16.125 0l-1.625 1.188L28.75 16l-6.313 8.406 1.625 1.188 6.75-9L31.25 16l-.438-.594z"/></symbol><symbol id="web-design-custom" viewBox="0 0 32 32"><path d="M4 5v8h24V5zm2 2h20v4H6zm2 1c-.55 0-1 .45-1 1s.45 1 1 1 1-.45 1-1-.45-1-1-1zm3 0c-.55 0-1 .45-1 1s.45 1 1 1 1-.45 1-1-.45-1-1-1zm3 0c-.55 0-1 .45-1 1s.45 1 1 1 1-.45 1-1-.45-1-1-1zM4 14v13h24V14h-2v11H6V14zm4 1v8h8v-8zm10 0v2h6v-2zm-8 2h4v4h-4zm8 1v2h6v-2zm0 3v2h6v-2z"/></symbol></svg>